<svg xmlns="http://www.w3.org/2000/svg" width="1200" height="760" viewBox="0 0 1200 760" role="img" aria-labelledby="t d">
<title id="t">KeepG Smart demo</title><desc id="d">Concept demo of on-device people grouping and smart rules.</desc>
<rect width="1200" height="760" fill="#f1f5f9"/><rect x="180" y="30" width="840" height="700" rx="42" fill="#fff" stroke="#cbd5e1" stroke-width="3"/>
<text x="230" y="90" font-family="Arial" font-size="32" font-weight="800" fill="#111827">✦ Smart organization</text>
<rect x="230" y="125" width="740" height="120" rx="20" fill="#f5f3ff"/><text x="260" y="165" font-family="Arial" font-size="23" font-weight="700" fill="#5b21b6">On-device smart organization</text><text x="260" y="200" font-family="Arial" font-size="18" fill="#475569">Face detection → feature extraction → similarity groups → your rules</text><rect x="780" y="158" width="155" height="50" rx="25" fill="#6d28d9"/><text x="858" y="190" text-anchor="middle" font-family="Arial" font-size="17" fill="#fff">Analyze library</text>
<text x="230" y="295" font-family="Arial" font-size="24" font-weight="700" fill="#111827">People</text>
<g font-family="Arial"><circle cx="285" cy="355" r="34" fill="#c4b5fd"/><text x="285" y="364" text-anchor="middle" font-size="24">A</text><text x="340" y="350" font-size="21" font-weight="700" fill="#111827">Alex</text><text x="340" y="378" font-size="17" fill="#64748b">142 detected faces</text><text x="900" y="365" font-size="24" fill="#6d28d9">✎ ＋</text>
<circle cx="285" cy="435" r="34" fill="#99f6e4"/><text x="285" y="444" text-anchor="middle" font-size="24">M</text><text x="340" y="430" font-size="21" font-weight="700" fill="#111827">Mina</text><text x="340" y="458" font-size="17" fill="#64748b">87 detected faces</text><text x="900" y="445" font-size="24" fill="#6d28d9">✎ ＋</text></g>
<text x="230" y="525" font-family="Arial" font-size="24" font-weight="700" fill="#111827">Smart albums</text>
<g font-family="Arial"><rect x="230" y="550" width="220" height="100" rx="18" fill="#ecfeff"/><text x="255" y="590" font-size="20" font-weight="700" fill="#0f766e">☺ Big smiles</text><text x="255" y="620" font-size="16" fill="#475569">Expression · 231</text><rect x="470" y="550" width="220" height="100" rx="18" fill="#eff6ff"/><text x="495" y="590" font-size="20" font-weight="700" fill="#1d4ed8">⌖ Taipei</text><text x="495" y="620" font-size="16" fill="#475569">Location · 481</text><rect x="710" y="550" width="220" height="100" rx="18" fill="#fff7ed"/><text x="735" y="590" font-size="20" font-weight="700" fill="#c2410c">◷ Summer 2026</text><text x="735" y="620" font-size="16" fill="#475569">Time · 906</text></g>
<text x="230" y="690" font-family="Arial" font-size="16" fill="#64748b">Demo render — actual grouping is probabilistic and user-correctable.</text>
</svg>
